<?xml version="1.0" encoding="UTF-8" standalone="no"?>
<!DOCTYPE svg PUBLIC "-//W3C//DTD SVG 1.1//EN"
 "http://www.w3.org/Graphics/SVG/1.1/DTD/svg11.dtd">
<!-- Generated by graphviz version 2.38.0 (20140413.2041)
 -->
<!-- Title: sso Pages: 1 -->
<svg width="196pt" height="350pt"
 viewBox="0.00 0.00 196.00 350.00" xmlns="http://www.w3.org/2000/svg" xmlns:xlink="http://www.w3.org/1999/xlink">
<g id="graph0" class="graph" transform="scale(1 1) rotate(0) translate(4 346)">
<title>sso</title>
<polygon fill="white" stroke="none" points="-4,4 -4,-346 191.995,-346 191.995,4 -4,4"/>
<!-- user -->
<g id="node1" class="node"><title>user</title>
<ellipse fill="none" stroke="gray" cx="57" cy="-324" rx="27" ry="18"/>
<text text-anchor="middle" x="57" y="-320.3" font-family="Times,serif" font-size="14.00">user</text>
</g>
<!-- roundcube -->
<g id="node2" class="node"><title>roundcube</title>
<ellipse fill="none" stroke="black" cx="57" cy="-251" rx="48.1917" ry="18"/>
<text text-anchor="middle" x="57" y="-247.3" font-family="Times,serif" font-size="14.00">roundcube</text>
</g>
<!-- user&#45;&gt;roundcube -->
<g id="edge1" class="edge"><title>user&#45;&gt;roundcube</title>
<path fill="none" stroke="black" d="M57,-305.813C57,-297.789 57,-288.047 57,-279.069"/>
<polygon fill="black" stroke="black" points="60.5001,-279.029 57,-269.029 53.5001,-279.029 60.5001,-279.029"/>
</g>
<!-- IP -->
<g id="node3" class="node"><title>IP</title>
<ellipse fill="none" stroke="black" cx="27" cy="-164" rx="27" ry="18"/>
<text text-anchor="middle" x="27" y="-160.3" font-family="Times,serif" font-size="14.00">IP</text>
</g>
<!-- roundcube&#45;&gt;IP -->
<g id="edge2" class="edge"><title>roundcube&#45;&gt;IP</title>
<path fill="none" stroke="black" d="M26.088,-237.117C16.9959,-231.701 8.12175,-224.423 3,-215 -1.75914,-206.244 1.25288,-196.395 6.53025,-187.769"/>
<polygon fill="black" stroke="black" points="9.37888,-189.802 12.3588,-179.635 3.68898,-185.725 9.37888,-189.802"/>
<text text-anchor="middle" x="19" y="-203.8" font-family="Times,serif" font-size="14.00">sso:rc</text>
</g>
<!-- dovecot -->
<g id="node4" class="node"><title>dovecot</title>
<ellipse fill="none" stroke="black" cx="136" cy="-164" rx="38.1938" ry="18"/>
<text text-anchor="middle" x="136" y="-160.3" font-family="Times,serif" font-size="14.00">dovecot</text>
</g>
<!-- roundcube&#45;&gt;dovecot -->
<g id="edge4" class="edge"><title>roundcube&#45;&gt;dovecot</title>
<path fill="none" stroke="black" d="M85.0109,-236.28C94.4523,-230.658 104.488,-223.466 112,-215 118.063,-208.167 122.929,-199.531 126.652,-191.368"/>
<polygon fill="black" stroke="black" points="129.882,-192.714 130.5,-182.137 123.421,-190.02 129.882,-192.714"/>
</g>
<!-- IP&#45;&gt;roundcube -->
<g id="edge3" class="edge"><title>IP&#45;&gt;roundcube</title>
<path fill="none" stroke="black" d="M32.8577,-181.597C37.0092,-193.36 42.6711,-209.402 47.4684,-222.994"/>
<polygon fill="black" stroke="black" points="44.3003,-224.534 50.9291,-232.799 50.9013,-222.204 44.3003,-224.534"/>
<text text-anchor="middle" x="76" y="-203.8" font-family="Times,serif" font-size="14.00">sso:dovecot</text>
</g>
<!-- keylookupd -->
<g id="node5" class="node"><title>keylookupd</title>
<ellipse fill="none" stroke="black" cx="136" cy="-91" rx="51.9908" ry="18"/>
<text text-anchor="middle" x="136" y="-87.3" font-family="Times,serif" font-size="14.00">keylookupd</text>
</g>
<!-- dovecot&#45;&gt;keylookupd -->
<g id="edge5" class="edge"><title>dovecot&#45;&gt;keylookupd</title>
<path fill="none" stroke="black" d="M136,-145.813C136,-137.789 136,-128.047 136,-119.069"/>
<polygon fill="black" stroke="black" points="139.5,-119.029 136,-109.029 132.5,-119.029 139.5,-119.029"/>
</g>
<!-- keystore -->
<g id="node6" class="node"><title>keystore</title>
<ellipse fill="none" stroke="black" cx="136" cy="-18" rx="40.0939" ry="18"/>
<text text-anchor="middle" x="136" y="-14.3" font-family="Times,serif" font-size="14.00">keystore</text>
</g>
<!-- keylookupd&#45;&gt;keystore -->
<g id="edge6" class="edge"><title>keylookupd&#45;&gt;keystore</title>
<path fill="none" stroke="black" d="M136,-72.8129C136,-64.7895 136,-55.0475 136,-46.0691"/>
<polygon fill="black" stroke="black" points="139.5,-46.0288 136,-36.0288 132.5,-46.0289 139.5,-46.0288"/>
</g>
</g>
</svg>
