<?xml version="1.0" encoding="UTF-8" standalone="no"?>
<!DOCTYPE svg PUBLIC "-//W3C//DTD SVG 1.1//EN"
 "http://www.w3.org/Graphics/SVG/1.1/DTD/svg11.dtd">
<!-- Generated by graphviz version 2.38.0 (20140413.2041)
 -->
<!-- Title: simple_no2fa Pages: 1 -->
<svg width="230pt" height="291pt"
 viewBox="0.00 0.00 230.04 291.00" xmlns="http://www.w3.org/2000/svg" xmlns:xlink="http://www.w3.org/1999/xlink">
<g id="graph0" class="graph" transform="scale(1 1) rotate(0) translate(4 287)">
<title>simple_no2fa</title>
<polygon fill="white" stroke="none" points="-4,4 -4,-287 226.041,-287 226.041,4 -4,4"/>
<!-- user -->
<g id="node1" class="node"><title>user</title>
<ellipse fill="none" stroke="gray" cx="109.046" cy="-265" rx="27" ry="18"/>
<text text-anchor="middle" x="109.046" y="-261.3" font-family="Times,serif" font-size="14.00">user</text>
</g>
<!-- dovecot -->
<g id="node3" class="node"><title>dovecot</title>
<ellipse fill="none" stroke="black" cx="109.046" cy="-178" rx="38.1938" ry="18"/>
<text text-anchor="middle" x="109.046" y="-174.3" font-family="Times,serif" font-size="14.00">dovecot</text>
</g>
<!-- user&#45;&gt;dovecot -->
<g id="edge1" class="edge"><title>user&#45;&gt;dovecot</title>
<path fill="none" stroke="black" d="M109.046,-246.799C109.046,-235.163 109.046,-219.548 109.046,-206.237"/>
<polygon fill="black" stroke="black" points="112.546,-206.175 109.046,-196.175 105.546,-206.175 112.546,-206.175"/>
<text text-anchor="middle" x="149.046" y="-217.8" font-family="Times,serif" font-size="14.00">password/ASP</text>
</g>
<!-- DB -->
<g id="node2" class="node"><title>DB</title>
<polygon fill="none" stroke="black" points="148.046,-36 94.0456,-36 94.0456,-0 148.046,-0 148.046,-36"/>
<text text-anchor="middle" x="121.046" y="-14.3" font-family="Times,serif" font-size="14.00">DB</text>
</g>
<!-- auth&#45;server -->
<g id="node4" class="node"><title>auth&#45;server</title>
<ellipse fill="none" stroke="black" cx="50.0456" cy="-91" rx="50.0912" ry="18"/>
<text text-anchor="middle" x="50.0456" y="-87.3" font-family="Times,serif" font-size="14.00">auth&#45;server</text>
</g>
<!-- dovecot&#45;&gt;auth&#45;server -->
<g id="edge2" class="edge"><title>dovecot&#45;&gt;auth&#45;server</title>
<path fill="none" stroke="black" d="M97.6698,-160.611C89.0733,-148.226 77.1245,-131.012 67.3462,-116.925"/>
<polygon fill="black" stroke="black" points="70.1652,-114.848 61.5877,-108.629 64.4147,-118.839 70.1652,-114.848"/>
<text text-anchor="middle" x="99.5456" y="-130.8" font-family="Times,serif" font-size="14.00">PAM</text>
</g>
<!-- keylookupd -->
<g id="node5" class="node"><title>keylookupd</title>
<ellipse fill="none" stroke="black" cx="170.046" cy="-91" rx="51.9908" ry="18"/>
<text text-anchor="middle" x="170.046" y="-87.3" font-family="Times,serif" font-size="14.00">keylookupd</text>
</g>
<!-- dovecot&#45;&gt;keylookupd -->
<g id="edge4" class="edge"><title>dovecot&#45;&gt;keylookupd</title>
<path fill="none" stroke="black" d="M120.807,-160.611C129.695,-148.226 142.049,-131.012 152.158,-116.925"/>
<polygon fill="black" stroke="black" points="155.125,-118.794 158.112,-108.629 149.438,-114.712 155.125,-118.794"/>
</g>
<!-- auth&#45;server&#45;&gt;DB -->
<g id="edge3" class="edge"><title>auth&#45;server&#45;&gt;DB</title>
<path fill="none" stroke="black" d="M66.1566,-73.889C75.2433,-64.8023 86.7749,-53.2707 96.9204,-43.1251"/>
<polygon fill="black" stroke="black" points="99.412,-45.5833 104.008,-36.0373 94.4623,-40.6335 99.412,-45.5833"/>
</g>
<!-- keylookupd&#45;&gt;DB -->
<g id="edge5" class="edge"><title>keylookupd&#45;&gt;DB</title>
<path fill="none" stroke="black" d="M158.433,-73.174C152.54,-64.6343 145.255,-54.0791 138.686,-44.5607"/>
<polygon fill="black" stroke="black" points="141.476,-42.4407 132.915,-36.1984 135.714,-46.4167 141.476,-42.4407"/>
</g>
</g>
</svg>
