<?xml version="1.0" encoding="UTF-8" standalone="no"?>
<!DOCTYPE svg PUBLIC "-//W3C//DTD SVG 1.1//EN"
 "http://www.w3.org/Graphics/SVG/1.1/DTD/svg11.dtd">
<!-- Generated by graphviz version 2.40.1 (20161225.0304)
 -->
<!-- Title: log_flow Pages: 1 -->
<svg width="343pt" height="332pt"
 viewBox="0.00 0.00 342.64 332.00" xmlns="http://www.w3.org/2000/svg" xmlns:xlink="http://www.w3.org/1999/xlink">
<g id="graph0" class="graph" transform="scale(1 1) rotate(0) translate(4 328)">
<title>log_flow</title>
<polygon fill="#ffffff" stroke="transparent" points="-4,4 -4,-328 338.6442,-328 338.6442,4 -4,4"/>
<!-- process -->
<g id="node1" class="node">
<title>process</title>
<ellipse fill="none" stroke="#c0c0c0" cx="94.2474" cy="-306" rx="37.0935" ry="18"/>
<text text-anchor="middle" x="94.2474" y="-302.3" font-family="Times,serif" font-size="14.00" fill="#000000">process</text>
</g>
<!-- journald -->
<g id="node2" class="node">
<title>journald</title>
<ellipse fill="none" stroke="#000000" cx="94.2474" cy="-234" rx="40.0939" ry="18"/>
<text text-anchor="middle" x="94.2474" y="-230.3" font-family="Times,serif" font-size="14.00" fill="#000000">journald</text>
</g>
<!-- process&#45;&gt;journald -->
<g id="edge1" class="edge">
<title>process&#45;&gt;journald</title>
<path fill="none" stroke="#000000" d="M94.2474,-287.8314C94.2474,-280.131 94.2474,-270.9743 94.2474,-262.4166"/>
<polygon fill="#000000" stroke="#000000" points="97.7475,-262.4132 94.2474,-252.4133 90.7475,-262.4133 97.7475,-262.4132"/>
</g>
<!-- rsyslog -->
<g id="node3" class="node">
<title>rsyslog</title>
<ellipse fill="none" stroke="#000000" cx="94.2474" cy="-162" rx="36.2938" ry="18"/>
<text text-anchor="middle" x="94.2474" y="-158.3" font-family="Times,serif" font-size="14.00" fill="#000000">rsyslog</text>
</g>
<!-- journald&#45;&gt;rsyslog -->
<g id="edge2" class="edge">
<title>journald&#45;&gt;rsyslog</title>
<path fill="none" stroke="#000000" d="M94.2474,-215.8314C94.2474,-208.131 94.2474,-198.9743 94.2474,-190.4166"/>
<polygon fill="#000000" stroke="#000000" points="97.7475,-190.4132 94.2474,-180.4133 90.7475,-190.4133 97.7475,-190.4132"/>
</g>
<!-- mtail -->
<g id="node4" class="node">
<title>mtail</title>
<ellipse fill="none" stroke="#000000" cx="29.2474" cy="-90" rx="29.4969" ry="18"/>
<text text-anchor="middle" x="29.2474" y="-86.3" font-family="Times,serif" font-size="14.00" fill="#000000">mtail</text>
</g>
<!-- rsyslog&#45;&gt;mtail -->
<g id="edge3" class="edge">
<title>rsyslog&#45;&gt;mtail</title>
<path fill="none" stroke="#000000" d="M79.1717,-145.3008C70.6843,-135.8993 59.9459,-124.0044 50.6047,-113.6573"/>
<polygon fill="#000000" stroke="#000000" points="53.0932,-111.1907 43.7942,-106.1134 47.8973,-115.8815 53.0932,-111.1907"/>
</g>
<!-- log&#45;collector&#45;rsyslog -->
<g id="node5" class="node">
<title>log&#45;collector&#45;rsyslog</title>
<ellipse fill="none" stroke="#000000" cx="160.2474" cy="-90" rx="83.6854" ry="18"/>
<text text-anchor="middle" x="160.2474" y="-86.3" font-family="Times,serif" font-size="14.00" fill="#000000">log&#45;collector&#45;rsyslog</text>
</g>
<!-- rsyslog&#45;&gt;log&#45;collector&#45;rsyslog -->
<g id="edge4" class="edge">
<title>rsyslog&#45;&gt;log&#45;collector&#45;rsyslog</title>
<path fill="none" stroke="#000000" d="M109.555,-145.3008C117.6679,-136.4504 127.8063,-125.3903 136.8798,-115.492"/>
<polygon fill="#000000" stroke="#000000" points="139.692,-117.6037 143.8692,-107.8671 134.5319,-112.8736 139.692,-117.6037"/>
</g>
<!-- Elasticsearch -->
<g id="node6" class="node">
<title>Elasticsearch</title>
<ellipse fill="none" stroke="#000000" cx="229.2474" cy="-18" rx="57.3905" ry="18"/>
<text text-anchor="middle" x="229.2474" y="-14.3" font-family="Times,serif" font-size="14.00" fill="#000000">Elasticsearch</text>
</g>
<!-- log&#45;collector&#45;rsyslog&#45;&gt;Elasticsearch -->
<g id="edge5" class="edge">
<title>log&#45;collector&#45;rsyslog&#45;&gt;Elasticsearch</title>
<path fill="none" stroke="#000000" d="M177.3036,-72.2022C185.8059,-63.3303 196.2262,-52.4569 205.4963,-42.7837"/>
<polygon fill="#000000" stroke="#000000" points="208.2334,-44.9862 212.6255,-35.3446 203.1795,-40.1428 208.2334,-44.9862"/>
</g>
<!-- Kibana -->
<g id="node7" class="node">
<title>Kibana</title>
<ellipse fill="none" stroke="#000000" cx="298.2474" cy="-90" rx="36.2938" ry="18"/>
<text text-anchor="middle" x="298.2474" y="-86.3" font-family="Times,serif" font-size="14.00" fill="#000000">Kibana</text>
</g>
<!-- Kibana&#45;&gt;Elasticsearch -->
<g id="edge6" class="edge">
<title>Kibana&#45;&gt;Elasticsearch</title>
<path fill="none" stroke="#000000" d="M282.5902,-73.6621C273.8452,-64.5368 262.7701,-52.9802 252.9805,-42.765"/>
<polygon fill="#000000" stroke="#000000" points="255.2508,-40.0755 245.8048,-35.2773 250.1969,-44.9189 255.2508,-40.0755"/>
</g>
</g>
</svg>
