<?xml version="1.0" encoding="UTF-8" standalone="no"?>
<!DOCTYPE svg PUBLIC "-//W3C//DTD SVG 1.1//EN"
 "http://www.w3.org/Graphics/SVG/1.1/DTD/svg11.dtd">
<!-- Generated by graphviz version 2.38.0 (20140413.2041)
 -->
<!-- Title: sso Pages: 1 -->
<svg width="374pt" height="277pt"
 viewBox="0.00 0.00 374.34 277.00" xmlns="http://www.w3.org/2000/svg" xmlns:xlink="http://www.w3.org/1999/xlink">
<g id="graph0" class="graph" transform="scale(1 1) rotate(0) translate(4 273)">
<title>sso</title>
<polygon fill="white" stroke="none" points="-4,4 -4,-273 370.342,-273 370.342,4 -4,4"/>
<!-- user -->
<g id="node1" class="node"><title>user</title>
<ellipse fill="none" stroke="gray" cx="193.046" cy="-251" rx="27" ry="18"/>
<text text-anchor="middle" x="193.046" y="-247.3" font-family="Times,serif" font-size="14.00">user</text>
</g>
<!-- IP -->
<g id="node3" class="node"><title>IP</title>
<ellipse fill="none" stroke="black" cx="83.0456" cy="-164" rx="27" ry="18"/>
<text text-anchor="middle" x="83.0456" y="-160.3" font-family="Times,serif" font-size="14.00">IP</text>
</g>
<!-- user&#45;&gt;IP -->
<g id="edge1" class="edge"><title>user&#45;&gt;IP</title>
<path fill="none" stroke="black" d="M166.653,-246.909C131.465,-242.184 72.0895,-231.889 59.0456,-215 52.712,-206.8 55.9437,-196.659 61.8182,-187.657"/>
<polygon fill="black" stroke="black" points="64.7707,-189.557 68.0344,-179.477 59.1973,-185.322 64.7707,-189.557"/>
<text text-anchor="middle" x="73.0456" y="-203.8" font-family="Times,serif" font-size="14.00">login</text>
</g>
<!-- service1 -->
<g id="node4" class="node"><title>service1</title>
<ellipse fill="none" stroke="black" cx="223.046" cy="-164" rx="40.0939" ry="18"/>
<text text-anchor="middle" x="223.046" y="-160.3" font-family="Times,serif" font-size="14.00">service1</text>
</g>
<!-- user&#45;&gt;service1 -->
<g id="edge2" class="edge"><title>user&#45;&gt;service1</title>
<path fill="none" stroke="black" d="M176.72,-236.452C166.688,-226.412 156.994,-212.382 164.046,-200 168.494,-192.19 175.447,-185.942 183.041,-181.016"/>
<polygon fill="black" stroke="black" points="185.188,-183.82 192.139,-175.824 181.719,-177.74 185.188,-183.82"/>
<text text-anchor="middle" x="182.546" y="-203.8" font-family="Times,serif" font-size="14.00">unauth</text>
</g>
<!-- user&#45;&gt;service1 -->
<g id="edge4" class="edge"><title>user&#45;&gt;service1</title>
<path fill="none" stroke="black" d="M198.973,-233.207C203.136,-221.409 208.794,-205.378 213.579,-191.822"/>
<polygon fill="black" stroke="black" points="217,-192.644 217.028,-182.049 210.399,-190.314 217,-192.644"/>
<text text-anchor="middle" x="225.546" y="-203.8" font-family="Times,serif" font-size="14.00">token</text>
</g>
<!-- service2 -->
<g id="node5" class="node"><title>service2</title>
<ellipse fill="none" stroke="black" cx="326.046" cy="-164" rx="40.0939" ry="18"/>
<text text-anchor="middle" x="326.046" y="-160.3" font-family="Times,serif" font-size="14.00">service2</text>
</g>
<!-- user&#45;&gt;service2 -->
<g id="edge5" class="edge"><title>user&#45;&gt;service2</title>
<path fill="none" stroke="black" d="M218.75,-244.726C239.033,-239.627 267.274,-230.367 288.046,-215 296.986,-208.386 304.834,-199.105 311.042,-190.332"/>
<polygon fill="black" stroke="black" points="314.062,-192.112 316.682,-181.846 308.232,-188.237 314.062,-192.112"/>
<text text-anchor="middle" x="318.546" y="-203.8" font-family="Times,serif" font-size="14.00">token</text>
</g>
<!-- DB -->
<g id="node2" class="node"><title>DB</title>
<polygon fill="none" stroke="black" points="141.046,-36 87.0456,-36 87.0456,-0 141.046,-0 141.046,-36"/>
<text text-anchor="middle" x="114.046" y="-14.3" font-family="Times,serif" font-size="14.00">DB</text>
</g>
<!-- IP&#45;&gt;user -->
<g id="edge6" class="edge"><title>IP&#45;&gt;user</title>
<path fill="none" stroke="black" d="M94.4902,-180.773C102.714,-191.354 114.522,-205.111 127.046,-215 137.463,-223.226 150.1,-230.468 161.516,-236.199"/>
<polygon fill="black" stroke="black" points="160.215,-239.458 170.743,-240.646 163.254,-233.152 160.215,-239.458"/>
<text text-anchor="middle" x="142.546" y="-203.8" font-family="Times,serif" font-size="14.00">token</text>
</g>
<!-- auth&#45;server -->
<g id="node6" class="node"><title>auth&#45;server</title>
<ellipse fill="none" stroke="black" cx="50.0456" cy="-91" rx="50.0912" ry="18"/>
<text text-anchor="middle" x="50.0456" y="-87.3" font-family="Times,serif" font-size="14.00">auth&#45;server</text>
</g>
<!-- IP&#45;&gt;auth&#45;server -->
<g id="edge7" class="edge"><title>IP&#45;&gt;auth&#45;server</title>
<path fill="none" stroke="black" d="M75.3918,-146.533C71.4504,-138.053 66.5531,-127.516 62.1169,-117.972"/>
<polygon fill="black" stroke="black" points="65.2759,-116.464 57.887,-108.871 58.928,-119.415 65.2759,-116.464"/>
</g>
<!-- keystore -->
<g id="node7" class="node"><title>keystore</title>
<ellipse fill="none" stroke="black" cx="158.046" cy="-91" rx="40.0939" ry="18"/>
<text text-anchor="middle" x="158.046" y="-87.3" font-family="Times,serif" font-size="14.00">keystore</text>
</g>
<!-- IP&#45;&gt;keystore -->
<g id="edge9" class="edge"><title>IP&#45;&gt;keystore</title>
<path fill="none" stroke="black" d="M98.2229,-148.632C108.546,-138.86 122.417,-125.728 134.203,-114.571"/>
<polygon fill="black" stroke="black" points="136.733,-116.995 141.589,-107.579 131.921,-111.912 136.733,-116.995"/>
</g>
<!-- service1&#45;&gt;user -->
<g id="edge3" class="edge"><title>service1&#45;&gt;user</title>
<path fill="none" stroke="black" d="M242.665,-180.118C252.914,-189.933 262.008,-203.074 255.046,-215 248.716,-225.841 237.65,-233.589 226.603,-238.992"/>
<polygon fill="black" stroke="black" points="225.196,-235.787 217.431,-242.995 227.996,-242.203 225.196,-235.787"/>
<text text-anchor="middle" x="271.046" y="-203.8" font-family="Times,serif" font-size="14.00">redir</text>
</g>
<!-- auth&#45;server&#45;&gt;DB -->
<g id="edge8" class="edge"><title>auth&#45;server&#45;&gt;DB</title>
<path fill="none" stroke="black" d="M64.8893,-73.5327C72.8146,-64.7406 82.7332,-53.7371 91.5814,-43.9212"/>
<polygon fill="black" stroke="black" points="94.2937,-46.1397 98.3894,-36.3686 89.0942,-41.4529 94.2937,-46.1397"/>
</g>
<!-- keystore&#45;&gt;DB -->
<g id="edge10" class="edge"><title>keystore&#45;&gt;DB</title>
<path fill="none" stroke="black" d="M147.84,-73.5327C142.608,-65.0888 136.111,-54.6052 130.216,-45.0928"/>
<polygon fill="black" stroke="black" points="133.052,-43.025 124.809,-36.3686 127.102,-46.7124 133.052,-43.025"/>
</g>
</g>
</svg>
